# xmcd CD database file
#
# Track frame offsets:
#	150
#	1912
#	18215
#	38762
#	55586
#	73588
#	92281
#	108592
#	128435
#	144538
#	160503
#	177842
#	181276
#	202364
#	229474
#
# Disc length: 3190 seconds
#
# Revision: 0
# Processed by: cddbd v1.5.2PL0 Copyright (c) Steve Scherf et al.
# Submitted via: CDex 1.70beta2
#
DISCID=bb0c740f
DTITLE=David Lee Howard - Silver Dreams
DYEAR=2002
DGENRE=Country
TTITLE0=Dawn
TTITLE1=Coyote Moon
TTITLE2=Rockabilly Baby
TTITLE3=Silver Dreams
TTITLE4=Footprints in the Sand
TTITLE5=Proud Man
TTITLE6=Lord wont you help Me
TTITLE7=Next 2 me
TTITLE8=Changes Everything
TTITLE9=Whatever
TTITLE10=(Love Cries) Ancient Tears
TTITLE11=Dusk
TTITLE12=Albatross
TTITLE13=Last Train Home
TTITLE14=unnamed Bonustrack
EXTD=YEAR: 2002
EXTT0=
EXTT1=
EXTT2=
EXTT3=
EXTT4=
EXTT5=
EXTT6=
EXTT7=
EXTT8=
EXTT9=
EXTT10=
EXTT11=
EXTT12=
EXTT13=
EXTT14=
PLAYORDER=
